<?xml version="1.0" encoding="utf-8"?>
<!-- Generator: Adobe Illustrator 28.1.0, SVG Export Plug-In . SVG Version: 6.00 Build 0)  -->
<svg version="1.1" id="Layer_1" xmlns="http://www.w3.org/2000/svg" xmlns:xlink="http://www.w3.org/1999/xlink" x="0px" y="0px"
	 viewBox="0 0 1080 1080" style="enable-background:new 0 0 1080 1080;" xml:space="preserve">
<style type="text/css">
	.st0{fill:#C13200;}
</style>
<g>
	<path class="st0" d="M878.8,526.1c-8-0.1-16.1,0-23.6,0c-11-124.7-71.3-215.2-182.5-272.6c38,0,75.1,0,112.9,0
		c0,7.8-0.1,15.2,0,22.6c0.1,13.3,4.8,18.2,17.9,18.3c25,0.1,50.1,0.1,75.1,0c12.6-0.1,17.5-5.2,17.6-17.9c0-24.4-0.2-48.7,0.1-73.1
		c0.1-8.7-2.1-15.4-9.9-19.7c-30.2,0-60.3,0-90.5,0c-8,3.6-10.8,10-10.4,18.5c0.3,7.4,0.1,14.7,0.1,22.6c-63.6,0-126.5,0-190.3,0
		c0-7.5-0.2-14.8,0-22.2c0.3-8.7-2.5-15.4-11-18.9c-29.7,0-59.4,0-89.1,0c-8.5,3.5-11.2,10.2-11,18.9c0.2,7.2,0,14.3,0,22.1
		c-63.3,0-126.2,0-190.3,0c0-7.4-0.2-14.9,0.1-22.5c0.3-8.5-2.4-14.9-10.4-18.5c-33.4,0-66.8,0-100.2,0c0,33.6,0,66.9,0,100.2
		c3.6,8,10,10.7,18.4,10.6c24.6-0.2,49.1,0,73.7-0.1c13.7,0,18.3-4.7,18.4-18.4c0.1-7.4,0-14.7,0-22.5c37.8,0,74.9,0,113,0
		C295.8,311,235.5,401.7,224.6,526.1c-7,0-14.2,0.4-21.3-0.1c-8.7-0.6-15.4,2.1-19.7,9.8c0,30.2,0,60.3,0,90.5
		c3.3,6.9,8.5,10.6,16.3,10.6c26-0.1,52,0.1,77.9-0.1c11.1-0.1,16.1-5.3,16.2-16.3c0.2-26,0.2-52,0-77.9
		c-0.1-11.4-5.4-16.3-16.9-16.4c-7.8-0.1-15.7,0-24.1,0c4.9-75.1,33.6-138.8,86.5-191.1c40.2-39.8,88.4-65.4,144.9-76.6
		c0,7.4-0.2,13.6,0,19.8c0.4,10.6,5.4,16,15.9,16.1c26.2,0.3,52.4,0.2,78.6,0c10.9-0.1,15.9-5.6,16.2-16.5c0.2-6.2,0-12.4,0-19.6
		c65.3,13.5,119.1,45.1,161.8,94.8c42.5,49.5,65.6,107.2,69.4,173.1c-8.2,0-15.6,0-22.9,0c-12.8,0.1-17.9,4.8-17.9,17.5
		c-0.1,25.3-0.1,50.6,0,75.9c0.1,12.3,5,17.3,17.4,17.4c25.3,0.1,50.6,0.1,75.8,0c12.3-0.1,17.3-5.3,17.3-17.5
		c0.1-25.3,0.1-50.6,0-75.9C896.2,531.2,891.2,526.2,878.8,526.1z M814,212.1c17.8,0,35.7,0,54,0c0,18.2,0,36,0,54.1
		c-18.1,0-35.8,0-54,0C814,248.1,814,230.4,814,212.1z M266.1,265.9c-18.1,0-36,0-54.2,0c0-17.8,0-35.6,0-53.9c17.8,0,35.7,0,54.2,0
		C266.1,230.2,266.1,247.7,266.1,265.9z M265.8,554.4c0,17.9,0,35.8,0,54.2c-17.9,0-35.6,0-53.8,0c0-18,0-35.9,0-54.2
		C229.8,554.4,247.5,554.4,265.8,554.4z M567.1,265.9c-18,0-36.1,0-54.5,0c0-18.1,0-35.8,0-54.1c18.5,0,36.3,0,54.5,0
		C567.1,229.8,567.1,247.6,567.1,265.9z M868,608.4c-17.8,0-35.7,0-54,0c0-17.9,0-35.7,0-53.9c17.9,0,35.8,0,54,0
		C868,572.3,868,590.1,868,608.4z"/>
	<path class="st0" d="M554.5,341.3c-3.3-5.9-6.8-11.3-14.4-11.4c-7.6-0.1-11.3,5.1-14.6,11.1c-17.7,32.3-35.5,64.5-53.3,96.8
		c-1.2,2.2-2.4,4.5-3.1,6.9c-1.9,6.5,0.9,12.9,6.6,16c5.6,3,12.6,1.7,16.9-3.5c1.8-2.1,3.1-4.6,4.5-7c9.2-16.6,18.3-33.2,27.5-49.7
		c0.4,0.1,0.8,0.3,1.2,0.4c0,33.1,0,66.2,0,99.2c-26,13-36.9,31.8-32,55.2c4.4,21.1,22.8,36.7,44.3,37.5c21.6,0.8,40.6-12.9,47.1-34
		c3.1-10.2,2.6-20.2-1.1-30c-5.5-14.3-16.2-23.3-29.8-28.5c0-33.6,0-66.6,0-101.1c1.5,2.3,2.2,3.4,2.8,4.5
		c29.9,54.2,59.7,108.4,89.7,162.5c2.3,4.1,1.4,6.5-1.6,9.6c-19.7,20.7-34.8,44.5-45,71.2c-5,13.1-8.6,26.7-12.8,40.1
		c-31.8,0-63.8,0-95.8,0c-1.7-6.8-3.1-13.4-5-19.8c-10.2-34.6-27.2-65.3-52.1-91.5c-3.3-3.5-3.7-6.1-1.2-10.2
		c4.5-7.3,8.5-14.9,12.4-22.5c3.9-7.7,2.5-14.3-3.5-18.6c-7.2-5.3-15.9-3.1-21,5.8c-6.1,10.6-11.9,21.5-17.8,32.2
		c-6.4,11.6-5.9,15.6,3.8,25c16.5,16,29.9,34.2,40,54.8c7,14.3,12.5,29,15.6,45.3c-5.5,0-10.1-0.3-14.7,0
		C429.4,689.1,415,701,410,719c-4.6,16.8,2,34.7,17.3,44.9c3.6,2.4,4.2,4.9,4.2,8.5c-0.1,34.8-0.1,69.6,0,104.4c0,2.8,0,5.6,0.5,8.3
		c1.4,6.6,7,11.1,13.3,11.1c6.3,0,12-4.5,13.4-11c0.6-2.7,0.6-5.5,0.6-8.3c0-32.7,0-65.4,0-98.1c0-2.4,0-4.9,0-7.2
		c54.4,0,107.8,0,161.5,0c0,3.3,0,6.1,0,8.9c0,33.2-0.1,66.3,0,99.5c0,9.7,5.5,16,13.6,16.2c8.3,0.2,14-6.3,14.2-16.3
		c0-1.6,0-3.2,0-4.9c0-34.1-0.1-68.2,0.2-102.3c0-2.9,1.6-6.8,3.9-8.4c15.5-11.3,22.2-28.9,17.1-46.4c-5.3-18.1-20.3-29.6-39.6-30.4
		c-4.1-0.2-8.3,0-13,0c0.6-2.8,1-5,1.5-7.2c9.5-36.1,27.5-67.1,54.3-93.1c9.3-9,9.8-13.3,3.7-24.4
		C635.8,489.1,595.1,415.2,554.5,341.3z M559.4,545.9c0,10.6-8.8,19.3-19.5,19.3c-10.7,0-19.4-8.8-19.4-19.4
		c0-10.6,9-19.5,19.5-19.4C550.6,526.3,559.4,535.3,559.4,545.9z M628.1,715.5c9.6,0,15.4,5.9,15.2,14.4
		c-0.3,8.3-6.2,13.3-16.2,13.3c-24.1,0.1-48.2,0-72.3,0c-4.9,0-9.7,0-14.6,0c-29,0-57.9,0-86.9,0c-9.9,0-15.7-4.5-16.4-12.4
		c-0.7-7.1,3.1-12.7,9.9-14.7c1.5-0.4,3.2-0.7,4.8-0.7C510.3,715.5,569.2,715.4,628.1,715.5z"/>
	<path class="st0" d="M457,506.6c7.4,0.2,13.9-6.1,14-13.5c0.2-7.4-6.1-13.9-13.4-14.1c-7.3-0.2-13.8,6.1-13.9,13.5
		C443.5,500.2,449.5,506.5,457,506.6z"/>
</g>
</svg>
