<?xml version="1.0" encoding="utf-8"?>
<!-- Generator: Adobe Illustrator 28.1.0, SVG Export Plug-In . SVG Version: 6.00 Build 0)  -->
<svg version="1.1" id="Layer_1" xmlns="http://www.w3.org/2000/svg" xmlns:xlink="http://www.w3.org/1999/xlink" x="0px" y="0px"
	 viewBox="0 0 1080 1080" style="enable-background:new 0 0 1080 1080;" xml:space="preserve">
<style type="text/css">
	.st0{fill:#C13200;}
</style>
<g id="_x36_gmrUQ.tif">
	<g>
		<path class="st0" d="M861.7,421.9c0,85.5,0,171,0,256.5c-0.3,0.6-0.8,1.2-0.9,1.8c-6.5,31.5-28.6,49.7-60.7,49.8
			c-17.6,0.1-35.3,0-52.9,0c-2.4,0-4.8,0-7.6,0c0,3.5,0,5.9,0,8.4c0,30.3,0,60.6,0,90.9c0,27.2-15.9,43.1-42.8,43.1
			c-104.5,0-208.9,0-313.4,0c-27,0-42.9-16-42.9-43.1c0-30.5,0-61.1,0-91.6c0-2.4,0-4.8,0-7.8c-3.3,0-5.7,0-8.2,0
			c-17.9,0-35.7,0.2-53.6,0c-34.8-0.4-60.1-25.2-60.2-59.9c-0.3-80.1-0.3-160.1,0-240.2c0.1-34.5,25.2-59.2,59.7-59.7
			c18.1-0.2,36.2,0,54.3,0c2.4,0,4.8,0,8,0c0-3.1,0-5.6,0-8c0-37.1,0-74.2,0-111.3c0-4.5,0.1-9.1,1.1-13.4
			c4-16.7,15.7-25.7,31.6-30.1c111.3,0,222.6,0,333.9,0c26.4,10.5,32.6,19.7,32.6,48.6c0,35.5,0,71,0,106.6c0,2.4,0,4.8,0,7.6
			c3.4,0,5.9,0,8.3,0c17.6,0,35.3,0.1,52.9,0c16.6-0.1,31,5.2,43.1,16.7C854,396.4,858.8,408.7,861.7,421.9z M340.5,696.5
			c0-2.9,0-5.4,0-7.8c0-44.8,0-89.6,0-134.4c0-14.5,6.4-20.9,21.1-20.9c119,0,238,0,357,0c14.7,0,21,6.3,21,20.9c0,45,0,90,0,135.1
			c0,2.4,0.2,4.8,0.3,7.3c22.2,0,43.6,0.4,65-0.2c11.3-0.3,18.8-7.2,22.2-17.9c1.2-3.8,1.1-8,1.1-12.1c0.1-77.6,0-155.2,0-232.8
			c0-2.7,0-5.4-0.3-8.1c-1.1-10.3-8.8-19.2-19-21.3c-4.2-0.9-8.5-1-12.8-1c-152.5,0-304.9,0-457.4,0c-19.7,0-39.4-0.1-59,0
			c-13.6,0.1-23.4,6.5-26.7,17.8c-1.2,4-1.3,8.5-1.4,12.7c-0.1,77.6-0.1,155.2,0,232.8c0,2.5,0.1,5,0.4,7.4
			c1.3,12.1,9.6,21.8,21.7,22.2C295.6,697.1,317.5,696.5,340.5,696.5z M373.6,567.2c0,2.5,0,4.7,0,6.9c0,84.8,0,169.7,0,254.5
			c0,9.7,1.1,10.7,11.1,10.8c103.6,0,207.2,0,310.8,0c10.1,0,10.9-0.8,10.9-10.8c0-84.4,0-168.8,0-253.1c0-2.6,0-5.3,0-8.2
			C595.1,567.2,484.8,567.2,373.6,567.2z M706.2,370c0.1-2.7,0.3-4.9,0.3-7.1c0-36.9,0-73.7,0-110.6c0-10.7-0.9-11.5-11.6-11.5
			c-103.3,0-206.7,0-310,0c-10.4,0-11.3,1-11.3,11.2c0,37.1,0,74.2,0,111.3c0,2.2,0.2,4.4,0.3,6.9C484.8,370,595,370,706.2,370z"/>
		<path class="st0" d="M316.3,484.6c-9,0-16.4-7.4-16.4-16.3c-0.1-8.9,7.3-16.3,16.3-16.5c9.5-0.1,16.8,7.2,16.7,16.6
			C332.7,477.5,325.4,484.6,316.3,484.6z"/>
		<path class="st0" d="M539.8,644.4c-30.3,0-60.6,0.2-90.8-0.2c-4.8-0.1-10.3-1.9-14.3-4.7c-4.8-3.3-6.8-9-5.2-15.1
			c1.6-6.4,5.5-10.8,11.9-12.7c2.3-0.7,4.9-0.9,7.4-0.9c61,0,122-0.1,183,0c3.3,0,6.9,0.6,9.8,2c7,3.3,10.5,10.8,9,18
			c-1.7,8-8.3,13.4-17.2,13.5c-19.4,0.2-38.9,0.1-58.3,0.1C563.3,644.4,551.5,644.4,539.8,644.4z"/>
		<path class="st0" d="M540,795.2c-30.9,0-61.9,0-92.8,0c-9.1,0-16-5.5-17.8-13.6c-1.5-6.9,2.2-14.8,9.4-17.7c3.8-1.6,8.3-2,12.5-2
			c55.8-0.1,111.6-0.1,167.4-0.1c4.7,0,9.5-0.1,14.2,0c10.7,0.4,18.3,7.7,18.1,17.1c-0.3,9.5-8,16.3-18.8,16.3
			C601.4,795.2,570.7,795.2,540,795.2z"/>
		<path class="st0" d="M539.8,686.5c31.2,0,62.4,0,93.6,0c8.6,0,15,5.1,16.9,12.9c1.8,7.5-1.6,15.2-9.1,18.5
			c-3.2,1.4-7,1.9-10.5,1.9c-60.6,0.1-121.2,0.1-181.9,0c-12,0-19.9-6.8-19.9-16.7c0-9.9,7.9-16.6,19.9-16.6
			C479.2,686.5,509.5,686.5,539.8,686.5z"/>
	</g>
</g>
</svg>
