<?xml version="1.0" encoding="utf-8"?>
<!-- Generator: Adobe Illustrator 28.1.0, SVG Export Plug-In . SVG Version: 6.00 Build 0)  -->
<svg version="1.1" id="Layer_1" xmlns="http://www.w3.org/2000/svg" xmlns:xlink="http://www.w3.org/1999/xlink" x="0px" y="0px"
	 viewBox="0 0 1080 482" style="enable-background:new 0 0 1080 482;" xml:space="preserve">
<style type="text/css">
	.st0{fill:#FFFCF2;}
</style>
<g>
	<path class="st0" d="M292.5,142.3c0.3,0.9,0.5,1.9,0.5,3c1.1,25.6-35.5,4.8-41.3-7.1c-4.1-9.5-5.6-19-1.5-28.5
		C266.4,65.6,323.1,48,368.7,48c19.2,0,42.5,1.9,59.8,9.5c25.3,10.4,42,29.4,45.1,55.1c3.5,28.5-7.1,53.2-26.3,76
		c-22.8,27.5-51.7,49.9-88.6,64.1l-6.6,2.8c-0.5,0.5-1,1.4-2,1.9c0.5,1,0.5,2.4,1,3.3c14.2,21.4,19.8,44.6,24.3,68.8
		c2.9,15.2,4.7,30.8,8,45.9c2.8,12.8,19.9,17.2,31,8.7c6.7-5.1,9.5-13.4,14.2-20.3c4.7-6.9,13.7-12.8,21.6-9.4
		c4.2,1.9,6.9,6.1,7.6,10.5c0.7,4.3-0.3,8.8-1.8,13c-5.8,17.1-19.6,32.2-37.8,37.9c-54.4,16.8-65.2-46.3-70.6-81.5
		c-2-14.2-14.7-69.3-34.4-69.3c-1,0-2,0.5-3,0.5c-4.6,1-9.1,1.4-13.2,1.9c-9.1,6.2-56.7,116.8-63.8,133.4
		c-2.4,5.6-3.1,12.2-8.3,16.2c-8.8,6.7-26.6,6.7-26.6-6.7c0-9,84.1-184.2,95.2-207c14.7-30.4,31.4-59.4,46.6-89.3
		c6.1-10,12.2-17.6,20.8-25.6c7.1,0,11.6,1,17.2,5.2c6.6,5.2,4.6,11.4-1,17.6c-5.6,6.6-9.6,13.8-14.2,21.4
		c-16.2,29.4-32.9,59.4-47.1,90.2c-1.5,3.3-4.6,6.6-3.5,11.4c3.5,1.9,7.1,2.9,10.6,2.9c12.2,0,44.6-15.7,54.7-21.8
		c31.9-20.9,65.8-52.2,67.9-90.7c0.5-7.1-0.5-14.2-3-20.9c-8.1-20.4-32.9-29.9-54.7-30.9c-4.6-0.5-9.1-0.5-13.7-0.5
		c-33.4,0-80.5,10-94.2,42.7c-0.5,2.4-1.5,4.7-1.5,7.1C278.1,131.6,289.8,134,292.5,142.3z"/>
	<path class="st0" d="M516.2,240.7c-1.8,9.1-8.4,16.6-12.4,24.9c-12.9,26.9-23.9,54.4-34.8,82.1c-8.3,21.1-15.1,48.3-42.3,53.6
		c-2.7,0.5-5.5,0.8-8.1,0.2c-2.6-0.6-5.1-2.2-6.1-4.6c-1.5-3.6,0.7-7.6,2.9-11c14.4-22.2,21.9-48.6,31.8-72.8
		C453.6,297,460,281,467,265.3c5.9-13.2,11.7-31.4,24.4-40.3c5.1-3.6,12.4-5.1,17.9-2.1c5.4,2.9,7.7,9.4,7.2,15.2
		C516.5,239,516.4,239.8,516.2,240.7z"/>
	<path class="st0" d="M715.7,299.9c3.7,6.3,6.1,11.5,12.9,12.7l1.8,9.8c0,1.2-0.6,2.3-1.2,2.9l-38.7,38
		c-27.7,27.1-81.8,66.3-124.8,66.3c-24.6,0-43.6-8.1-57.2-28.8c-10.5-17.9-11.1-36.3-7.4-55.3c8-37.5,27.7-69.7,55.9-96.8
		c8.6-9.2,18.4-17.3,28.9-24.2c13.5-10.4,31.4-17.9,49.2-17.9c4.3,0,8,0,12.3,1.2c20.9,4.6,41.8,24.2,31.4,54.2
		c-1.8,6.3-5.5,11.5-9.8,16.1c-7.5,7.1-19.2,17.4-30.8,12.5c-5.4-2.3-9.1-7.5-9.7-12.9c-0.6-6.3,5-10.6,9.1-15.2
		c1.8-2.3,4.3-4,6.1-6.9c2.5-3.5,4.9-7.5,1.8-12.1c-2.5-3.5-6.1-5.2-10.5-5.2c-0.6,0-1.8,0.6-3.1,0.6c-9.2,1.7-17.8,5.2-25.8,10.4
		c-40.6,26.5-73.2,73.2-73.2,120.5c1.2,17.9,12.9,27.7,31.4,27.7c35,0,84.8-36.9,106.4-61.7l25.8-25.4
		C704.6,302.8,705.2,302.2,715.7,299.9z"/>
	<path class="st0" d="M724,357.2c-1.8,12.1,0,22.5,10.5,31.1c3.7,2.9,8.6,5.8,13.5,5.8c24.6,0,45.5-12.1,60.9-28.8
		c8.1-8.2,16.1-16.5,24.2-24.7c9.3-9.5,24.6-29.6,40.1-17.2c13.5,10.7,0.9,22-7.1,30.4l-33.8,34.6c-25.8,26.5-52.3,38-89.8,38
		c-24-1.7-49.8-28.2-52.3-50.1c-6.8-62.2,18.4-111.8,68.2-151.6c12.3-9.8,27.7-15,44.3-15c15.4,0.6,24.6,7.5,29.5,20.2
		c4.9,11.5,5.5,23.6,1.8,35.7c-13.5,40.9-47.3,68-89.1,82.4C738.2,350.3,731.4,352,724,357.2z M797.8,242.5
		c-27.1,6.3-65.8,50.1-65.8,75.5c22.7-7.5,41.8-19.6,55.9-37.5c6.8-7.5,10.5-16.7,12.9-25.9C802.1,250.6,802.1,246.6,797.8,242.5z"
		/>
	<ellipse class="st0" cx="516.7" cy="191.3" rx="20.5" ry="19.2"/>
</g>
</svg>
