<?xml version="1.0" encoding="utf-8"?>
<!-- Generator: Adobe Illustrator 28.1.0, SVG Export Plug-In . SVG Version: 6.00 Build 0)  -->
<svg version="1.1" id="Layer_1" xmlns="http://www.w3.org/2000/svg" xmlns:xlink="http://www.w3.org/1999/xlink" x="0px" y="0px"
	 viewBox="0 0 1080 1080" style="enable-background:new 0 0 1080 1080;" xml:space="preserve">
<style type="text/css">
	.st0{fill:#C93A00;}
</style>
<g>
	<path class="st0" d="M906.1,220c-1.1-7.5-6.9-12.6-14.7-12.9c-19.5-0.9-39.1-1.8-58.6-2.6c-1.8-0.1-2.5-0.5-2.4-2.5
		c0.1-9.9,0-19.9,0-29.8h-0.7c0-9.5,0-19.1,0-28.6c0-6.7-3-11.7-9.2-14.3c-6.2-2.6-11.8-1.1-16.7,3.6
		c-35.1,33.8-70.1,67.7-105.2,101.5c-5.1,4.9-6.7,10.5-5,17.3c4.1,16.7,8,33.4,12.1,50.2c0.3,1.4,0.1,2.2-0.9,3.1
		c-2.4,2.2-4.7,4.4-7,6.7c-1.2,1.3-1.9,1.4-3.4,0.1c-53.4-47.4-115.7-66.8-186.4-56.7c-49.8,7.1-92.7,29-127.5,65.3
		c-53.9,56.3-74.3,123.6-60.7,200.4c9.4,53.1,36,96.8,77.2,131.7c22.7,19.3,34.6,43.8,35.1,73.7c0.2,7.9,2.2,15.2,7.1,21.4
		c1,1.3,0.5,2.1-0.1,3.1c-9.3,16-6.2,36.2,7.7,48.6c1.3,1.2,1.5,2,0.8,3.6c-6.4,14.7-3.2,31.7,8.2,43c8.3,8.2,18.4,11.8,29.9,11.3
		c1.9-0.1,2.6,0.5,3.1,2.3c1.6,6.5,4.5,12.6,8.2,18.3c13.2,20,36.1,29.4,58.1,23c20.4-5.9,32.7-20.2,39-40c1.1-3.6,1.1-3.6,4.7-3.6
		c29.1,0,47.6-27.3,36.9-54.2c-0.5-1.2-0.3-1.8,0.7-2.6c15.5-13.4,18.7-33.2,8.1-50.9c-0.6-1-0.6-1.6,0.1-2.5
		c4.6-6.3,6.5-13.4,6.6-21.1c0.5-29.4,12.1-53.6,34.4-72.8c55.7-47.7,83.3-108.3,82-181.6c-0.6-34.3-9.4-66.7-25.2-97.2
		c-6.9-13.3-15.1-25.8-24.5-37.4c-1.1-1.4-1.1-2.1,0.2-3.3c2.5-2.2,4.9-4.5,7.1-6.9c1.2-1.2,2.2-1.4,3.8-1c16.3,4.6,32.7,9,49,13.7
		c7.1,2.1,12.8,0.6,18.1-4.6c16.4-16.1,33-31.9,49.5-47.9c18.5-17.9,37.1-35.8,55.6-53.7C905.1,229.5,906.9,225.2,906.1,220z
		 M541.3,872.8c-8.9-0.1-18.4-6.9-21.3-15.5h43.4C560.2,866.4,550.7,873,541.3,872.8z M599.7,827.3c-6.8,0.1-13.6,0-20.3,0
		c-31.7,0-63.3,0-95,0c-7,0-11.4-6.1-9.1-12.3c1.4-3.6,4.6-5.8,8.9-5.8c18.3,0,36.7,0,55,0h2.4c19.1,0,38.3,0,57.4,0
		c5.1,0,8.9,3,9.5,7.5C609.5,822.4,605.5,827.2,599.7,827.3z M620.3,772.2c-0.9,4.3-4.5,7.1-9.4,7.2c-15.5,0-31,0-46.5,0h-22.8
		c-22.9,0-45.7,0-68.6,0c-5.8,0-9.8-4.1-9.5-9.5c0.2-4.5,3.9-8.2,8.4-8.5c0.5,0,1,0,1.5,0c45.8,0,91.6,0,137.4,0
		C617.2,761.3,621.5,766.2,620.3,772.2z M736.6,456.8c6.6,69.7-17.1,127.5-70.1,173.2c-29.2,25.2-44.3,56.9-45.2,95.5
		c-0.1,4.3-1.6,5.9-5.8,5.9c-24.7,0-49.3,0-73.9,0h-73c-5,0-6.3-1.3-6.4-6.3c-1.1-38.6-16.3-70.5-45.8-95.5
		c-35.6-30.2-58.3-68.1-67.3-113.9c-16.4-82.8,23.4-168,97.4-208.8c34.5-19,71.4-27.2,110.6-24.1c44.3,3.5,82.9,20.5,116,50
		c1.1,1,1.4,1.6,0.2,2.8c-8.7,8.3-17.3,16.5-25.8,24.9c-1.3,1.3-1.9,0.6-2.9-0.2c-19.4-16.2-41.5-27.2-66.1-33.1
		c-70-16.8-144.2,16.8-177.9,80.4c-16,30.1-21.8,62.1-17.7,95.9c7.9,65.2,56.7,119.8,121,135.5c87.9,21.5,177-34.6,194.8-123.2
		c9.6-47.6-0.6-91.1-29.8-130c-1.5-2-1.7-3,0.3-4.8c8.2-7.7,16.2-15.5,24.2-23.4c1.4-1.4,2-1.1,3.1,0.3
		C718.9,387.1,733.1,420,736.6,456.8z M531.1,493.7c6,6.1,15.2,5.9,21.9-0.5c14.4-13.9,28.8-27.8,43.2-41.8c1.7-1.6,2.3-1.4,3.3,0.5
		c5.2,9.8,7.9,20.3,8,31.4c0.2,33.5-25.9,62.2-59.2,65.3c-41.1,3.8-75.1-29.7-71.9-71c3.8-48,58.2-75.7,99.3-50.6
		c1.6,1,1.5,1.5,0.2,2.7c-14.6,14-29.1,28-43.6,42.1C525.4,478.2,525,487.4,531.1,493.7z M600.9,405.4c-1.3,1.3-2.1,1.2-3.5,0.2
		c-30.5-20.7-62.9-24-96.3-8.7c-37.4,17.1-59.1,56.7-54.3,97c4.9,41.5,35,74.4,75.9,82.9c53.6,11.2,106.6-26.4,113.7-80.7
		c3.1-23.8-1.9-45.8-15.1-65.8c-1-1.6-0.9-2.3,0.4-3.5c7.4-7.1,14.8-14.2,22.1-21.4c1.2-1.2,1.7-1.1,2.7,0.2
		c20,27.6,28.6,58.2,24.8,92.1C664.7,554,624,598.7,568.8,610.8c-70.8,15.5-142.1-32-155.2-103.4c-1.5-8-2.2-16-2.3-22.9
		c0-66.9,49.2-122.8,114.5-130.6c35.8-4.3,68,5,96.6,26.9c1.9,1.5,1.6,2.2,0.1,3.7C615.3,391.4,608,398.3,600.9,405.4z M854.4,237
		c-24.2,23.4-48.5,46.8-72.7,70.2c-1,1-1.9,1.6-3.5,1.1c-13.7-3.9-27.4-7.6-41.1-11.4c-1.4-0.4-2.1-1-2.5-2.5
		c-3.2-13.8-6.6-27.7-9.9-41.5c-0.3-1.2-0.4-2,0.6-3c24.7-23.8,49.3-47.6,73.9-71.4c0.2-0.2,0.4-0.3,1.3-0.9c0,9.9,0,19.2,0,28.5
		c0,4,0,8.1,0.1,12.1c0.1,8.7,6.2,14.9,14.9,15.3c12.3,0.5,24.5,1.1,36.8,1.6c1,0,1.9,0.1,2.9,0.1
		C855.6,236.3,854.8,236.6,854.4,237z"/>
</g>
</svg>
